# Chronovox Studio (1.3.0.1) OBJ file: ''
# www.nickvoxel.com/chronovox-studio

mtllib Body.mtl

vn 1 0 0
vn -1 0 0
vn 0 1 0
vn 0 -1 0
vn 0 0 1
vn 0 0 -1

v -3 0 -1
v -3 0 1
v -3 1 1
v -3 1 -1
v -3 7 1
v -3 7 -1
v 3 0 -1
v 3 1 -1
v 3 1 1
v 3 0 1
v 3 7 -1
v 3 7 1

vt 0.25 0.5
vt 0.75 0.5

o Matrix
usemtl Body
s off

f 1/1/2 2/1/2 3/1/2
f 3/1/2 4/1/2 1/1/2
f 4/2/2 3/2/2 5/2/2
f 5/2/2 6/2/2 4/2/2
f 7/1/1 8/1/1 9/1/1
f 9/1/1 10/1/1 7/1/1
f 8/2/1 11/2/1 12/2/1
f 12/2/1 9/2/1 8/2/1
f 2/1/5 10/1/5 9/1/5
f 9/1/5 3/1/5 2/1/5
f 3/2/5 9/2/5 12/2/5
f 12/2/5 5/2/5 3/2/5
f 1/1/6 4/1/6 8/1/6
f 8/1/6 7/1/6 1/1/6
f 4/2/6 6/2/6 11/2/6
f 11/2/6 8/2/6 4/2/6
f 6/2/3 5/2/3 12/2/3
f 12/2/3 11/2/3 6/2/3
f 1/1/4 7/1/4 10/1/4
f 10/1/4 2/1/4 1/1/4
