# Blender v2.82 (sub 7) OBJ File: ''
# www.blender.org
mtllib Player_Test.mtl
o Head_Head.001
v 2.000000 15.000000 -2.000000
v -2.000000 15.000000 -2.000000
v -2.000000 17.000000 -2.000000
v 2.000000 17.000000 -2.000000
v -2.000001 19.000000 -2.000000
v 1.999999 19.000000 -2.000000
v 2.000000 15.000000 2.000000
v 1.999999 18.000000 2.000000
v -2.000001 18.000000 2.000000
v -2.000000 15.000000 2.000000
v 1.999999 19.000000 2.000000
v -2.000001 19.000000 2.000000
v -2.000000 17.000000 2.000000
v -2.000000 17.000000 -0.000000
v -2.000001 19.000000 -0.000000
v -2.000000 18.000000 -0.000000
v 2.000000 17.000000 2.000000
v 1.999999 19.000000 0.000000
v 2.000000 17.000000 0.000000
v 2.000000 18.000000 0.000000
vt 0.250000 0.500000
vt 0.250000 0.500000
vt 0.250000 0.500000
vt 0.250000 0.500000
vt 0.750000 0.500000
vt 0.750000 0.500000
vt 0.750000 0.500000
vt 0.750000 0.500000
vt 0.250000 0.500000
vt 0.250000 0.500000
vt 0.250000 0.500000
vt 0.250000 0.500000
vt 0.750000 0.500000
vt 0.750000 0.500000
vt 0.750000 0.500000
vt 0.750000 0.500000
vt 0.250000 0.500000
vt 0.750000 0.500000
vt 0.750000 0.500000
vt 0.250000 0.500000
vt 0.250000 0.500000
vt 0.750000 0.500000
vt 0.250000 0.500000
vt 0.750000 0.500000
vt 0.750000 0.500000
vt 0.250000 0.500000
vt 0.250000 0.500000
vt 0.750000 0.500000
vn 0.0000 0.0000 -1.0000
vn 0.0000 0.0000 1.0000
vn -1.0000 -0.0000 -0.0000
vn 1.0000 0.0000 0.0000
vn 0.0000 1.0000 0.0000
vn 0.0000 -1.0000 -0.0000
usemtl Head.001
s 1
f 1/1/1 2/2/1 3/3/1
f 3/3/1 4/4/1 1/1/1
f 4/5/1 3/6/1 5/7/1
f 5/7/1 6/8/1 4/5/1
f 7/9/2 8/10/2 9/11/2
f 9/11/2 10/12/2 7/9/2
f 8/13/2 11/14/2 12/15/2
f 12/15/2 9/16/2 8/13/2
f 2/2/3 10/12/3 13/17/3
f 13/17/3 3/3/3 2/2/3
f 3/6/3 14/18/3 15/19/3
f 15/19/3 5/7/3 3/6/3
f 14/20/3 13/17/3 9/11/3
f 9/11/3 16/21/3 14/20/3
f 16/22/3 9/16/3 12/15/3
f 12/15/3 15/19/3 16/22/3
f 1/1/4 4/4/4 17/23/4
f 17/23/4 7/9/4 1/1/4
f 4/5/4 6/8/4 18/24/4
f 18/24/4 19/25/4 4/5/4
f 19/26/4 20/27/4 8/10/4
f 8/10/4 17/23/4 19/26/4
f 20/28/4 18/24/4 11/14/4
f 11/14/4 8/13/4 20/28/4
f 6/8/5 5/7/5 12/15/5
f 12/15/5 11/14/5 6/8/5
f 1/1/6 7/9/6 10/12/6
f 10/12/6 2/2/6 1/1/6
o Body_Matrix.002
v -3.000000 7.000000 -1.000000
v -3.000000 7.000000 1.000000
v -3.000000 8.125000 1.000000
v -3.000000 8.125000 -1.000000
v -3.000000 14.875000 1.000001
v -3.000000 14.875000 -0.999999
v 3.000000 7.000000 -1.000000
v 3.000000 8.125000 -1.000000
v 3.000000 8.125000 1.000000
v 3.000000 7.000000 1.000000
v 3.000000 14.875000 -0.999999
v 3.000000 14.875000 1.000001
vt 0.250000 0.500000
vt 0.250000 0.500000
vt 0.250000 0.500000
vt 0.250000 0.500000
vt 0.750000 0.500000
vt 0.750000 0.500000
vt 0.750000 0.500000
vt 0.750000 0.500000
vt 0.250000 0.500000
vt 0.250000 0.500000
vt 0.250000 0.500000
vt 0.250000 0.500000
vt 0.750000 0.500000
vt 0.750000 0.500000
vt 0.750000 0.500000
vt 0.750000 0.500000
vn -1.0000 0.0000 0.0000
vn 1.0000 0.0000 0.0000
vn 0.0000 -0.0000 1.0000
vn 0.0000 0.0000 -1.0000
vn 0.0000 1.0000 0.0000
vn 0.0000 -1.0000 0.0000
usemtl Body.001
s 1
f 21/29/7 22/30/7 23/31/7
f 23/31/7 24/32/7 21/29/7
f 24/33/7 23/34/7 25/35/7
f 25/35/7 26/36/7 24/33/7
f 27/37/8 28/38/8 29/39/8
f 29/39/8 30/40/8 27/37/8
f 28/41/8 31/42/8 32/43/8
f 32/43/8 29/44/8 28/41/8
f 22/30/9 30/40/9 29/39/9
f 29/39/9 23/31/9 22/30/9
f 23/34/9 29/44/9 32/43/9
f 32/43/9 25/35/9 23/34/9
f 21/29/10 24/32/10 28/38/10
f 28/38/10 27/37/10 21/29/10
f 24/33/10 26/36/10 31/42/10
f 31/42/10 28/41/10 24/33/10
f 26/36/11 25/35/11 32/43/11
f 32/43/11 31/42/11 26/36/11
f 21/29/12 27/37/12 30/40/12
f 30/40/12 22/30/12 21/29/12
o Left_Thigh_Matrix.003
v 1.000000 4.000000 -1.000000
v 1.000000 4.000000 1.000000
v 1.000000 4.750000 1.000000
v 1.000000 4.750000 -1.000000
v 1.000000 5.500000 1.000000
v 1.000000 5.500000 -1.000000
v 1.000000 7.000000 1.000000
v 1.000000 7.000000 -1.000000
v 3.000000 4.000000 -1.000000
v 3.000000 4.750000 -1.000000
v 3.000000 4.750000 1.000000
v 3.000000 4.000000 1.000000
v 3.000000 5.500000 -1.000000
v 3.000000 5.500000 1.000000
v 3.000000 7.000000 -1.000000
v 3.000000 7.000000 1.000000
vt 0.166667 0.500000
vt 0.166667 0.500000
vt 0.166667 0.500000
vt 0.166667 0.500000
vt 0.500000 0.500000
vt 0.500000 0.500000
vt 0.500000 0.500000
vt 0.500000 0.500000
vt 0.833333 0.500000
vt 0.833333 0.500000
vt 0.833333 0.500000
vt 0.833333 0.500000
vt 0.166667 0.500000
vt 0.166667 0.500000
vt 0.166667 0.500000
vt 0.166667 0.500000
vt 0.500000 0.500000
vt 0.500000 0.500000
vt 0.500000 0.500000
vt 0.500000 0.500000
vt 0.833333 0.500000
vt 0.833333 0.500000
vt 0.833333 0.500000
vt 0.833333 0.500000
vn -1.0000 -0.0000 0.0000
vn 1.0000 0.0000 0.0000
vn 0.0000 -0.0000 1.0000
vn 0.0000 0.0000 -1.0000
vn 0.0000 1.0000 0.0000
vn 0.0000 -1.0000 -0.0000
usemtl Leg
s 1
f 33/45/13 34/46/13 35/47/13
f 35/47/13 36/48/13 33/45/13
f 36/49/13 35/50/13 37/51/13
f 37/51/13 38/52/13 36/49/13
f 38/53/13 37/54/13 39/55/13
f 39/55/13 40/56/13 38/53/13
f 41/57/14 42/58/14 43/59/14
f 43/59/14 44/60/14 41/57/14
f 42/61/14 45/62/14 46/63/14
f 46/63/14 43/64/14 42/61/14
f 45/65/14 47/66/14 48/67/14
f 48/67/14 46/68/14 45/65/14
f 34/46/15 44/60/15 43/59/15
f 43/59/15 35/47/15 34/46/15
f 35/50/15 43/64/15 46/63/15
f 46/63/15 37/51/15 35/50/15
f 37/54/15 46/68/15 48/67/15
f 48/67/15 39/55/15 37/54/15
f 33/45/16 36/48/16 42/58/16
f 42/58/16 41/57/16 33/45/16
f 36/49/16 38/52/16 45/62/16
f 45/62/16 42/61/16 36/49/16
f 38/53/16 40/56/16 47/66/16
f 47/66/16 45/65/16 38/53/16
f 40/56/17 39/55/17 48/67/17
f 48/67/17 47/66/17 40/56/17
f 33/45/18 41/57/18 44/60/18
f 44/60/18 34/46/18 33/45/18
o Right_Thigh_Matrix.006
v -3.000000 4.000000 -1.000000
v -3.000000 4.000000 1.000000
v -3.000000 4.750000 1.000000
v -3.000000 4.750000 -1.000000
v -3.000000 5.500000 1.000000
v -3.000000 5.500000 -1.000000
v -3.000000 7.000000 1.000000
v -3.000000 7.000000 -1.000000
v -1.000000 4.000000 -1.000000
v -1.000000 4.750000 -1.000000
v -1.000000 4.750000 1.000000
v -1.000000 4.000000 1.000000
v -1.000000 5.500000 -1.000000
v -1.000000 5.500000 1.000000
v -1.000000 7.000000 -1.000000
v -1.000000 7.000000 1.000000
vt 0.166667 0.500000
vt 0.166667 0.500000
vt 0.166667 0.500000
vt 0.166667 0.500000
vt 0.500000 0.500000
vt 0.500000 0.500000
vt 0.500000 0.500000
vt 0.500000 0.500000
vt 0.833333 0.500000
vt 0.833333 0.500000
vt 0.833333 0.500000
vt 0.833333 0.500000
vt 0.166667 0.500000
vt 0.166667 0.500000
vt 0.166667 0.500000
vt 0.166667 0.500000
vt 0.500000 0.500000
vt 0.500000 0.500000
vt 0.500000 0.500000
vt 0.500000 0.500000
vt 0.833333 0.500000
vt 0.833333 0.500000
vt 0.833333 0.500000
vt 0.833333 0.500000
vn -1.0000 0.0000 0.0000
vn 1.0000 0.0000 0.0000
vn 0.0000 -0.0000 1.0000
vn 0.0000 0.0000 -1.0000
vn 0.0000 1.0000 0.0000
vn 0.0000 -1.0000 -0.0000
usemtl Leg.001
s 1
f 49/69/19 50/70/19 51/71/19
f 51/71/19 52/72/19 49/69/19
f 52/73/19 51/74/19 53/75/19
f 53/75/19 54/76/19 52/73/19
f 54/77/19 53/78/19 55/79/19
f 55/79/19 56/80/19 54/77/19
f 57/81/20 58/82/20 59/83/20
f 59/83/20 60/84/20 57/81/20
f 58/85/20 61/86/20 62/87/20
f 62/87/20 59/88/20 58/85/20
f 61/89/20 63/90/20 64/91/20
f 64/91/20 62/92/20 61/89/20
f 50/70/21 60/84/21 59/83/21
f 59/83/21 51/71/21 50/70/21
f 51/74/21 59/88/21 62/87/21
f 62/87/21 53/75/21 51/74/21
f 53/78/21 62/92/21 64/91/21
f 64/91/21 55/79/21 53/78/21
f 49/69/22 52/72/22 58/82/22
f 58/82/22 57/81/22 49/69/22
f 52/73/22 54/76/22 61/86/22
f 61/86/22 58/85/22 52/73/22
f 54/77/22 56/80/22 63/90/22
f 63/90/22 61/89/22 54/77/22
f 56/80/23 55/79/23 64/91/23
f 64/91/23 63/90/23 56/80/23
f 49/69/24 57/81/24 60/84/24
f 60/84/24 50/70/24 49/69/24
o Right_Leg_Matrix.007
v -3.000000 0.000000 -1.000000
v -3.000000 -0.000000 1.000000
v -3.000000 1.000000 1.000000
v -3.000000 1.000000 -1.000000
v -3.000000 2.000000 1.000000
v -3.000000 2.000000 -1.000000
v -3.000000 4.000000 1.000001
v -3.000000 4.000000 -0.999999
v -1.000000 0.000000 -1.000000
v -1.000000 1.000000 -1.000000
v -1.000000 1.000000 1.000000
v -1.000000 -0.000000 1.000000
v -1.000000 2.000000 -1.000000
v -1.000000 2.000000 1.000000
v -1.000000 4.000000 -0.999999
v -1.000000 4.000000 1.000001
vt 0.166667 0.500000
vt 0.166667 0.500000
vt 0.166667 0.500000
vt 0.166667 0.500000
vt 0.500000 0.500000
vt 0.500000 0.500000
vt 0.500000 0.500000
vt 0.500000 0.500000
vt 0.833333 0.500000
vt 0.833333 0.500000
vt 0.833333 0.500000
vt 0.833333 0.500000
vt 0.166667 0.500000
vt 0.166667 0.500000
vt 0.166667 0.500000
vt 0.166667 0.500000
vt 0.500000 0.500000
vt 0.500000 0.500000
vt 0.500000 0.500000
vt 0.500000 0.500000
vt 0.833333 0.500000
vt 0.833333 0.500000
vt 0.833333 0.500000
vt 0.833333 0.500000
vn -1.0000 0.0000 0.0000
vn 1.0000 0.0000 0.0000
vn 0.0000 -0.0000 1.0000
vn 0.0000 0.0000 -1.0000
vn 0.0000 1.0000 0.0000
vn 0.0000 -1.0000 -0.0000
usemtl Leg.002
s 1
f 65/93/25 66/94/25 67/95/25
f 67/95/25 68/96/25 65/93/25
f 68/97/25 67/98/25 69/99/25
f 69/99/25 70/100/25 68/97/25
f 70/101/25 69/102/25 71/103/25
f 71/103/25 72/104/25 70/101/25
f 73/105/26 74/106/26 75/107/26
f 75/107/26 76/108/26 73/105/26
f 74/109/26 77/110/26 78/111/26
f 78/111/26 75/112/26 74/109/26
f 77/113/26 79/114/26 80/115/26
f 80/115/26 78/116/26 77/113/26
f 66/94/27 76/108/27 75/107/27
f 75/107/27 67/95/27 66/94/27
f 67/98/27 75/112/27 78/111/27
f 78/111/27 69/99/27 67/98/27
f 69/102/27 78/116/27 80/115/27
f 80/115/27 71/103/27 69/102/27
f 65/93/28 68/96/28 74/106/28
f 74/106/28 73/105/28 65/93/28
f 68/97/28 70/100/28 77/110/28
f 77/110/28 74/109/28 68/97/28
f 70/101/28 72/104/28 79/114/28
f 79/114/28 77/113/28 70/101/28
f 72/104/29 71/103/29 80/115/29
f 80/115/29 79/114/29 72/104/29
f 65/93/30 73/105/30 76/108/30
f 76/108/30 66/94/30 65/93/30
o Left_Leg_Matrix.008
v 1.000000 0.000000 -1.000000
v 1.000000 -0.000000 1.000000
v 1.000000 1.000000 1.000000
v 1.000000 1.000000 -1.000000
v 1.000000 2.000000 1.000000
v 1.000000 2.000000 -1.000000
v 1.000000 4.000000 1.000001
v 1.000000 4.000000 -0.999999
v 3.000000 0.000000 -1.000000
v 3.000000 1.000000 -1.000000
v 3.000000 1.000000 1.000000
v 3.000000 -0.000000 1.000000
v 3.000000 2.000000 -1.000000
v 3.000000 2.000000 1.000000
v 3.000000 4.000000 -0.999999
v 3.000000 4.000000 1.000001
vt 0.166667 0.500000
vt 0.166667 0.500000
vt 0.166667 0.500000
vt 0.166667 0.500000
vt 0.500000 0.500000
vt 0.500000 0.500000
vt 0.500000 0.500000
vt 0.500000 0.500000
vt 0.833333 0.500000
vt 0.833333 0.500000
vt 0.833333 0.500000
vt 0.833333 0.500000
vt 0.166667 0.500000
vt 0.166667 0.500000
vt 0.166667 0.500000
vt 0.166667 0.500000
vt 0.500000 0.500000
vt 0.500000 0.500000
vt 0.500000 0.500000
vt 0.500000 0.500000
vt 0.833333 0.500000
vt 0.833333 0.500000
vt 0.833333 0.500000
vt 0.833333 0.500000
vn -1.0000 -0.0000 0.0000
vn 1.0000 0.0000 0.0000
vn 0.0000 -0.0000 1.0000
vn 0.0000 0.0000 -1.0000
vn 0.0000 1.0000 0.0000
vn 0.0000 -1.0000 -0.0000
usemtl Leg.003
s 1
f 81/117/31 82/118/31 83/119/31
f 83/119/31 84/120/31 81/117/31
f 84/121/31 83/122/31 85/123/31
f 85/123/31 86/124/31 84/121/31
f 86/125/31 85/126/31 87/127/31
f 87/127/31 88/128/31 86/125/31
f 89/129/32 90/130/32 91/131/32
f 91/131/32 92/132/32 89/129/32
f 90/133/32 93/134/32 94/135/32
f 94/135/32 91/136/32 90/133/32
f 93/137/32 95/138/32 96/139/32
f 96/139/32 94/140/32 93/137/32
f 82/118/33 92/132/33 91/131/33
f 91/131/33 83/119/33 82/118/33
f 83/122/33 91/136/33 94/135/33
f 94/135/33 85/123/33 83/122/33
f 85/126/33 94/140/33 96/139/33
f 96/139/33 87/127/33 85/126/33
f 81/117/34 84/120/34 90/130/34
f 90/130/34 89/129/34 81/117/34
f 84/121/34 86/124/34 93/134/34
f 93/134/34 90/133/34 84/121/34
f 86/125/34 88/128/34 95/138/34
f 95/138/34 93/137/34 86/125/34
f 88/128/35 87/127/35 96/139/35
f 96/139/35 95/138/35 88/128/35
f 81/117/36 89/129/36 92/132/36
f 92/132/36 82/118/36 81/117/36
o Right_Upper_Arm.001_Matrix.009
v 3.000000 12.921585 -1.000000
v 3.000000 12.921585 1.000000
v 3.000000 14.921585 1.000000
v 3.000000 14.921585 -1.000000
v 6.000000 12.921585 -1.000000
v 6.000000 14.921585 -1.000000
v 6.000000 14.921585 1.000000
v 6.000000 12.921585 1.000000
vt 0.500000 0.500000
vt 0.500000 0.500000
vt 0.500000 0.500000
vt 0.500000 0.500000
vt 0.500000 0.500000
vt 0.500000 0.500000
vt 0.500000 0.500000
vt 0.500000 0.500000
vn -1.0000 -0.0000 0.0000
vn 1.0000 0.0000 0.0000
vn 0.0000 -0.0000 1.0000
vn 0.0000 0.0000 -1.0000
vn 0.0000 1.0000 0.0000
vn 0.0000 -1.0000 0.0000
usemtl Arm.005
s 1
f 97/141/37 98/142/37 99/143/37
f 99/143/37 100/144/37 97/141/37
f 101/145/38 102/146/38 103/147/38
f 103/147/38 104/148/38 101/145/38
f 98/142/39 104/148/39 103/147/39
f 103/147/39 99/143/39 98/142/39
f 97/141/40 100/144/40 102/146/40
f 102/146/40 101/145/40 97/141/40
f 100/144/41 99/143/41 103/147/41
f 103/147/41 102/146/41 100/144/41
f 97/141/42 101/145/42 104/148/42
f 104/148/42 98/142/42 97/141/42
o Left_Lower_Arm_Matrix.010
v 6.000000 12.921585 -1.000000
v 6.000000 12.921585 1.000000
v 6.000000 14.921585 1.000000
v 6.000000 14.921585 -1.000000
v 10.800000 12.921585 -1.000000
v 10.800000 14.921585 -1.000000
v 10.800000 14.921585 1.000000
v 10.800000 12.921585 1.000000
vt 0.500000 0.500000
vt 0.500000 0.500000
vt 0.500000 0.500000
vt 0.500000 0.500000
vt 0.500000 0.500000
vt 0.500000 0.500000
vt 0.500000 0.500000
vt 0.500000 0.500000
vn -1.0000 -0.0000 0.0000
vn 1.0000 0.0000 0.0000
vn 0.0000 -0.0000 1.0000
vn 0.0000 0.0000 -1.0000
vn 0.0000 1.0000 0.0000
vn 0.0000 -1.0000 0.0000
usemtl Arm.006
s 1
f 105/149/43 106/150/43 107/151/43
f 107/151/43 108/152/43 105/149/43
f 109/153/44 110/154/44 111/155/44
f 111/155/44 112/156/44 109/153/44
f 106/150/45 112/156/45 111/155/45
f 111/155/45 107/151/45 106/150/45
f 105/149/46 108/152/46 110/154/46
f 110/154/46 109/153/46 105/149/46
f 108/152/47 107/151/47 111/155/47
f 111/155/47 110/154/47 108/152/47
f 105/149/48 109/153/48 112/156/48
f 112/156/48 106/150/48 105/149/48
o Right_Lower_Arm_Matrix.011
v -10.750000 12.900000 -1.000000
v -10.750000 12.900000 1.000000
v -10.750000 14.900000 1.000000
v -10.750000 14.900000 -1.000000
v -5.950000 12.900000 -1.000000
v -5.950000 14.900000 -1.000000
v -5.950000 14.900000 1.000000
v -5.950000 12.900000 1.000000
vt 0.500000 0.500000
vt 0.500000 0.500000
vt 0.500000 0.500000
vt 0.500000 0.500000
vt 0.500000 0.500000
vt 0.500000 0.500000
vt 0.500000 0.500000
vt 0.500000 0.500000
vn -1.0000 0.0000 0.0000
vn 1.0000 -0.0000 0.0000
vn 0.0000 -0.0000 1.0000
vn 0.0000 0.0000 -1.0000
vn 0.0000 1.0000 0.0000
vn 0.0000 -1.0000 0.0000
usemtl Arm.007
s 1
f 113/157/49 114/158/49 115/159/49
f 115/159/49 116/160/49 113/157/49
f 117/161/50 118/162/50 119/163/50
f 119/163/50 120/164/50 117/161/50
f 114/158/51 120/164/51 119/163/51
f 119/163/51 115/159/51 114/158/51
f 113/157/52 116/160/52 118/162/52
f 118/162/52 117/161/52 113/157/52
f 116/160/53 115/159/53 119/163/53
f 119/163/53 118/162/53 116/160/53
f 113/157/54 117/161/54 120/164/54
f 120/164/54 114/158/54 113/157/54
o Right_Upper_Arm_Matrix.012
v -6.000000 12.921585 -1.000000
v -6.000000 12.921585 1.000000
v -6.000000 14.921585 1.000000
v -6.000000 14.921585 -1.000000
v -3.000000 12.921585 -1.000000
v -3.000000 14.921585 -1.000000
v -3.000000 14.921585 1.000000
v -3.000000 12.921585 1.000000
vt 0.500000 0.500000
vt 0.500000 0.500000
vt 0.500000 0.500000
vt 0.500000 0.500000
vt 0.500000 0.500000
vt 0.500000 0.500000
vt 0.500000 0.500000
vt 0.500000 0.500000
vn -1.0000 0.0000 0.0000
vn 1.0000 -0.0000 0.0000
vn 0.0000 -0.0000 1.0000
vn 0.0000 0.0000 -1.0000
vn 0.0000 1.0000 0.0000
vn 0.0000 -1.0000 0.0000
usemtl Arm.008
s 1
f 121/165/55 122/166/55 123/167/55
f 123/167/55 124/168/55 121/165/55
f 125/169/56 126/170/56 127/171/56
f 127/171/56 128/172/56 125/169/56
f 122/166/57 128/172/57 127/171/57
f 127/171/57 123/167/57 122/166/57
f 121/165/58 124/168/58 126/170/58
f 126/170/58 125/169/58 121/165/58
f 124/168/59 123/167/59 127/171/59
f 127/171/59 126/170/59 124/168/59
f 121/165/60 125/169/60 128/172/60
f 128/172/60 122/166/60 121/165/60
