# MagicaVoxel @ Ephtracy

# group
o 

# material
mtllib player.mtl
usemtl palette

# normals
vn -1 0 0
vn 1 0 0
vn 0 0 1
vn 0 0 -1
vn 0 -1 0
vn 0 1 0

# texcoords
vt 0.373047 0.5
vt 0.845703 0.5
vt 0.970703 0.5
vt 0.994141 0.5

# verts
v 0 4.6 -0.2
v 0 4.6 -0.6
v 0 5 -0.2
v 0 5 -0.6
v 1.2 2 -0.2
v 1.2 2 -0.6
v 1.2 2.2 -0.2
v 1.2 2.2 -0.6
v 1.2 2.4 -0.2
v 1.2 2.4 -0.6
v 1.2 2.9 -0.2
v 1.2 2.9 -0.6
v 1.2 3.6 -0.2
v 1.2 3.6 -0.6
v 1.2 3.8 -0.2
v 1.2 3.8 -0.6
v 1.2 4.6 -0.2
v 1.2 4.6 -0.6
v 1.4 5 0
v 1.4 5 -0.2
v 1.4 5 -0.6
v 1.4 5 -0.8
v 1.4 5.4 -0.4
v 1.4 5.4 -0.8
v 1.4 5.6 0
v 1.4 5.6 -0.4
v 1.4 5.8 0
v 1.4 5.8 -0.8
v 2 2 -0.2
v 2 2 -0.6
v 2 2.2 -0.2
v 2 2.2 -0.6
v 2 2.4 -0.2
v 2 2.4 -0.6
v 2 2.9 -0.2
v 2 2.9 -0.6
v 2 3.4 -0.2
v 2 3.4 -0.6
v 1.6 2 -0.2
v 1.6 2 -0.6
v 1.6 2.2 -0.2
v 1.6 2.2 -0.6
v 1.6 2.4 -0.2
v 1.6 2.4 -0.6
v 1.6 2.9 -0.2
v 1.6 2.9 -0.6
v 1.6 3.4 -0.2
v 1.6 3.4 -0.6
v 2.2 5 0
v 2.2 5 -0.2
v 2.2 5 -0.6
v 2.2 5 -0.8
v 2.2 5.4 -0.4
v 2.2 5.4 -0.8
v 2.2 5.6 0
v 2.2 5.6 -0.4
v 2.2 5.8 0
v 2.2 5.8 -0.8
v 2.4 2 -0.2
v 2.4 2 -0.6
v 2.4 2.2 -0.2
v 2.4 2.2 -0.6
v 2.4 2.4 -0.2
v 2.4 2.4 -0.6
v 2.4 2.9 -0.2
v 2.4 2.9 -0.6
v 2.4 3.6 -0.2
v 2.4 3.6 -0.6
v 2.4 3.8 -0.2
v 2.4 3.8 -0.6
v 2.4 4.6 -0.2
v 2.4 4.6 -0.6
v 3.6 4.6 -0.2
v 3.6 4.6 -0.6
v 3.6 5 -0.2
v 3.6 5 -0.6
v 1.4 5 0
v 1.4 5.6 0
v 1.4 5.8 0
v 2.2 5 0
v 2.2 5.6 0
v 2.2 5.8 0
v 0 4.6 -0.2
v 0 5 -0.2
v 1.2 2 -0.2
v 1.2 2.2 -0.2
v 1.2 2.4 -0.2
v 1.2 2.9 -0.2
v 1.2 3.6 -0.2
v 1.2 3.8 -0.2
v 1.2 4.6 -0.2
v 1.2 5 -0.2
v 1.4 5 -0.2
v 1.6 2 -0.2
v 1.6 2.2 -0.2
v 1.6 2.4 -0.2
v 1.6 2.9 -0.2
v 1.6 3.4 -0.2
v 2 2 -0.2
v 2 2.2 -0.2
v 2 2.4 -0.2
v 2 2.9 -0.2
v 2 3.4 -0.2
v 2.2 5 -0.2
v 2.4 2 -0.2
v 2.4 2.2 -0.2
v 2.4 2.4 -0.2
v 2.4 2.9 -0.2
v 2.4 3.6 -0.2
v 2.4 3.8 -0.2
v 2.4 4.6 -0.2
v 2.4 5 -0.2
v 3.6 4.6 -0.2
v 3.6 5 -0.2
v 0 4.6 -0.6
v 0 5 -0.6
v 1.2 2 -0.6
v 1.2 2.2 -0.6
v 1.2 2.4 -0.6
v 1.2 2.9 -0.6
v 1.2 3.6 -0.6
v 1.2 3.8 -0.6
v 1.2 4.6 -0.6
v 1.2 5 -0.6
v 1.4 5 -0.6
v 1.6 2 -0.6
v 1.6 2.2 -0.6
v 1.6 2.4 -0.6
v 1.6 2.9 -0.6
v 1.6 3.4 -0.6
v 2 2 -0.6
v 2 2.2 -0.6
v 2 2.4 -0.6
v 2 2.9 -0.6
v 2 3.4 -0.6
v 2.2 5 -0.6
v 2.4 2 -0.6
v 2.4 2.2 -0.6
v 2.4 2.4 -0.6
v 2.4 2.9 -0.6
v 2.4 3.6 -0.6
v 2.4 3.8 -0.6
v 2.4 4.6 -0.6
v 2.4 5 -0.6
v 3.6 4.6 -0.6
v 3.6 5 -0.6
v 1.4 5 -0.8
v 1.4 5.4 -0.8
v 1.4 5.8 -0.8
v 2.2 5 -0.8
v 2.2 5.4 -0.8
v 2.2 5.8 -0.8
v 1.2 2 -0.2
v 1.6 2 -0.2
v 2 2 -0.2
v 2.4 2 -0.2
v 1.2 2 -0.6
v 1.6 2 -0.6
v 2 2 -0.6
v 2.4 2 -0.6
v 1.6 3.4 -0.2
v 2 3.4 -0.2
v 1.6 3.4 -0.6
v 2 3.4 -0.6
v 0 4.6 -0.2
v 1.2 4.6 -0.2
v 2.4 4.6 -0.2
v 3.6 4.6 -0.2
v 0 4.6 -0.6
v 1.2 4.6 -0.6
v 2.4 4.6 -0.6
v 3.6 4.6 -0.6
v 1.4 5 0
v 2.2 5 0
v 1.4 5 -0.2
v 2.2 5 -0.2
v 1.4 5 -0.6
v 2.2 5 -0.6
v 1.4 5 -0.8
v 2.2 5 -0.8
v 0 5 -0.2
v 1.2 5 -0.2
v 1.4 5 -0.2
v 2.2 5 -0.2
v 2.4 5 -0.2
v 3.6 5 -0.2
v 0 5 -0.6
v 1.2 5 -0.6
v 1.4 5 -0.6
v 2.2 5 -0.6
v 2.4 5 -0.6
v 3.6 5 -0.6
v 1.4 5.8 0
v 2.2 5.8 0
v 1.4 5.8 -0.8
v 2.2 5.8 -0.8

# faces
f 3/1/1 2/1/1 1/1/1
f 4/1/1 2/1/1 3/1/1
f 7/4/1 6/4/1 5/4/1
f 8/4/1 6/4/1 7/4/1
f 9/3/1 8/3/1 7/3/1
f 10/3/1 8/3/1 9/3/1
f 11/1/1 10/1/1 9/1/1
f 12/1/1 10/1/1 11/1/1
f 13/2/1 12/2/1 11/2/1
f 14/2/1 12/2/1 13/2/1
f 15/4/1 14/4/1 13/4/1
f 16/4/1 14/4/1 15/4/1
f 17/2/1 16/2/1 15/2/1
f 18/2/1 16/2/1 17/2/1
f 23/1/1 20/1/1 19/1/1
f 23/1/1 22/1/1 21/1/1
f 23/1/1 21/1/1 20/1/1
f 24/1/1 22/1/1 23/1/1
f 25/1/1 23/1/1 19/1/1
f 26/4/1 24/4/1 23/4/1
f 26/1/1 23/1/1 25/1/1
f 27/4/1 26/4/1 25/4/1
f 28/4/1 24/4/1 26/4/1
f 28/4/1 26/4/1 27/4/1
f 31/4/1 30/4/1 29/4/1
f 32/4/1 30/4/1 31/4/1
f 33/3/1 32/3/1 31/3/1
f 34/3/1 32/3/1 33/3/1
f 35/1/1 34/1/1 33/1/1
f 36/1/1 34/1/1 35/1/1
f 37/2/1 36/2/1 35/2/1
f 38/2/1 36/2/1 37/2/1
f 39/4/2 40/4/2 41/4/2
f 41/4/2 40/4/2 42/4/2
f 41/3/2 42/3/2 43/3/2
f 43/3/2 42/3/2 44/3/2
f 43/1/2 44/1/2 45/1/2
f 45/1/2 44/1/2 46/1/2
f 45/2/2 46/2/2 47/2/2
f 47/2/2 46/2/2 48/2/2
f 49/1/2 50/1/2 53/1/2
f 51/1/2 52/1/2 53/1/2
f 50/1/2 51/1/2 53/1/2
f 53/1/2 52/1/2 54/1/2
f 49/1/2 53/1/2 55/1/2
f 53/4/2 54/4/2 56/4/2
f 55/1/2 53/1/2 56/1/2
f 55/4/2 56/4/2 57/4/2
f 56/4/2 54/4/2 58/4/2
f 57/4/2 56/4/2 58/4/2
f 59/4/2 60/4/2 61/4/2
f 61/4/2 60/4/2 62/4/2
f 61/3/2 62/3/2 63/3/2
f 63/3/2 62/3/2 64/3/2
f 63/1/2 64/1/2 65/1/2
f 65/1/2 64/1/2 66/1/2
f 65/2/2 66/2/2 67/2/2
f 67/2/2 66/2/2 68/2/2
f 67/4/2 68/4/2 69/4/2
f 69/4/2 68/4/2 70/4/2
f 69/2/2 70/2/2 71/2/2
f 71/2/2 70/2/2 72/2/2
f 73/1/2 74/1/2 75/1/2
f 75/1/2 74/1/2 76/1/2
f 80/1/3 78/1/3 77/1/3
f 81/4/3 79/4/3 78/4/3
f 81/1/3 78/1/3 80/1/3
f 82/4/3 79/4/3 81/4/3
f 91/1/3 84/1/3 83/1/3
f 92/1/3 84/1/3 91/1/3
f 93/2/3 91/2/3 90/2/3
f 93/2/3 92/2/3 91/2/3
f 94/4/3 86/4/3 85/4/3
f 95/3/3 87/3/3 86/3/3
f 95/4/3 86/4/3 94/4/3
f 96/1/3 88/1/3 87/1/3
f 96/3/3 87/3/3 95/3/3
f 97/2/3 89/2/3 88/2/3
f 97/1/3 88/1/3 96/1/3
f 98/2/3 89/2/3 97/2/3
f 103/2/3 89/2/3 98/2/3
f 104/2/3 93/2/3 90/2/3
f 105/4/3 100/4/3 99/4/3
f 106/3/3 101/3/3 100/3/3
f 106/4/3 100/4/3 105/4/3
f 107/1/3 102/1/3 101/1/3
f 107/3/3 101/3/3 106/3/3
f 108/2/3 103/2/3 102/2/3
f 108/1/3 102/1/3 107/1/3
f 109/4/3 90/4/3 89/4/3
f 109/2/3 103/2/3 108/2/3
f 109/2/3 89/2/3 103/2/3
f 110/2/3 104/2/3 90/2/3
f 110/4/3 90/4/3 109/4/3
f 111/2/3 104/2/3 110/2/3
f 112/2/3 104/2/3 111/2/3
f 113/1/3 112/1/3 111/1/3
f 114/1/3 112/1/3 113/1/3
f 115/1/4 116/1/4 123/1/4
f 123/1/4 116/1/4 124/1/4
f 122/2/4 123/2/4 125/2/4
f 123/2/4 124/2/4 125/2/4
f 117/4/4 118/4/4 126/4/4
f 118/3/4 119/3/4 127/3/4
f 126/4/4 118/4/4 127/4/4
f 119/1/4 120/1/4 128/1/4
f 127/3/4 119/3/4 128/3/4
f 120/2/4 121/2/4 129/2/4
f 128/1/4 120/1/4 129/1/4
f 129/2/4 121/2/4 130/2/4
f 130/2/4 121/2/4 135/2/4
f 122/2/4 125/2/4 136/2/4
f 131/4/4 132/4/4 137/4/4
f 132/3/4 133/3/4 138/3/4
f 137/4/4 132/4/4 138/4/4
f 133/1/4 134/1/4 139/1/4
f 138/3/4 133/3/4 139/3/4
f 134/2/4 135/2/4 140/2/4
f 139/1/4 134/1/4 140/1/4
f 121/4/4 122/4/4 141/4/4
f 140/2/4 135/2/4 141/2/4
f 135/2/4 121/2/4 141/2/4
f 122/2/4 136/2/4 142/2/4
f 141/4/4 122/4/4 142/4/4
f 142/2/4 136/2/4 143/2/4
f 143/2/4 136/2/4 144/2/4
f 143/1/4 144/1/4 145/1/4
f 145/1/4 144/1/4 146/1/4
f 147/1/4 148/1/4 150/1/4
f 148/4/4 149/4/4 151/4/4
f 150/1/4 148/1/4 151/1/4
f 151/4/4 149/4/4 152/4/4
f 157/4/5 154/4/5 153/4/5
f 158/4/5 154/4/5 157/4/5
f 159/4/5 156/4/5 155/4/5
f 160/4/5 156/4/5 159/4/5
f 163/2/5 162/2/5 161/2/5
f 164/2/5 162/2/5 163/2/5
f 169/1/5 166/1/5 165/1/5
f 170/1/5 166/1/5 169/1/5
f 171/1/5 168/1/5 167/1/5
f 172/1/5 168/1/5 171/1/5
f 175/1/5 174/1/5 173/1/5
f 176/1/5 174/1/5 175/1/5
f 179/1/5 178/1/5 177/1/5
f 180/1/5 178/1/5 179/1/5
f 181/1/6 182/1/6 187/1/6
f 182/2/6 183/2/6 188/2/6
f 187/1/6 182/1/6 188/1/6
f 188/2/6 183/2/6 189/2/6
f 184/2/6 185/2/6 190/2/6
f 185/1/6 186/1/6 191/1/6
f 190/2/6 185/2/6 191/2/6
f 191/1/6 186/1/6 192/1/6
f 193/4/6 194/4/6 195/4/6
f 195/4/6 194/4/6 196/4/6
